<svg width="161" height="150" viewBox="0 0 161 150" fill="none" xmlns="http://www.w3.org/2000/svg">
<path d="M11.7722 38.7642L14.9131 38.003V15.6727L11.7722 14.9114V14.1501H16.4836C18.5426 14.1501 20.1655 14.793 21.352 16.0787C21.8057 16.5862 22.1896 17.2121 22.5037 17.9564C23.0272 17.0091 23.5856 16.2478 24.1789 15.6727C25.7494 14.1501 27.5467 13.3889 29.5708 13.3889C31.595 13.3889 33.3749 13.8287 34.9105 14.7084C36.446 15.5542 37.6326 16.7215 38.4702 18.2102C38.9937 17.229 39.5521 16.4339 40.1454 15.8249C41.7507 14.2009 43.5481 13.3889 45.5373 13.3889C47.387 13.3889 49.0447 13.761 50.5105 14.5054C52.0112 15.2497 53.1628 16.2648 53.9655 17.5504C54.8031 18.8361 55.2219 20.2402 55.2219 21.7627V38.003L58.3628 38.7642V39.5255H51.5575C48.4165 39.5255 46.846 38.003 46.846 34.9579V21.7627C46.846 19.5635 46.4971 17.9226 45.7991 16.8399C45.1011 15.7234 44.3158 15.1652 43.4434 15.1652C42.4313 15.1652 41.4017 15.8418 40.3548 17.1952C39.936 17.838 39.5695 18.5147 39.2554 19.2252V38.003L42.3964 38.7642V39.5255H27.7386V38.7642L30.8796 38.003V21.7627C30.8796 19.5635 30.5306 17.9226 29.8326 16.8399C29.1346 15.7234 28.3494 15.1652 27.4769 15.1652C26.4648 15.1652 25.4353 15.8418 24.3883 17.1952C23.9695 17.838 23.6031 18.5147 23.289 19.2252V38.003L26.4299 38.7642V39.5255H11.7722V38.7642Z" fill="white"/>
<path d="M71.1986 40.2867C68.0925 40.2867 65.7019 39.6439 64.0268 38.3582C62.3516 37.0725 61.514 35.4316 61.514 33.4354C61.514 32.1159 61.8107 30.8133 62.4039 29.5276C62.6482 28.9186 62.9623 28.3603 63.3462 27.8528C64.7771 27.5145 66.3301 27.21 68.0053 26.9393C71.7744 26.3303 75.1073 25.9581 78.004 25.8228V24.3003C78.004 20.5447 77.5328 17.9564 76.5906 16.5354C75.6483 15.1144 74.1999 14.4039 72.2456 14.4039C71.5127 14.4039 70.8845 14.4885 70.361 14.6576L69.6281 14.9114V22.524L68.9476 22.6763C68.3892 22.7439 67.918 22.7778 67.5342 22.7778C66.3476 22.7778 65.3878 22.4394 64.655 21.7627C63.957 21.0522 63.608 20.1218 63.608 18.9715C63.608 17.4151 64.4107 16.0956 66.016 15.0129C67.6563 13.9302 70.0818 13.3889 73.2926 13.3889C76.0147 13.3889 78.353 13.8626 80.3073 14.8099C82.2966 15.7234 83.7973 17.0091 84.8094 18.667C85.8563 20.291 86.3798 22.1687 86.3798 24.3003V38.003L89.5208 38.7642V39.5255H84.8094C82.7154 39.5255 81.0926 38.8996 79.9409 37.6477C79.4523 37.1402 79.0684 36.4974 78.7892 35.7192C78.3006 36.565 77.7248 37.3263 77.0617 38.003C75.4912 39.5255 73.5369 40.2867 71.1986 40.2867ZM73.2926 38.5105C74.5838 38.5105 75.753 37.8338 76.7999 36.4804C77.1838 35.9729 77.5852 35.2963 78.004 34.4504V27.0916C76.3986 27.0916 74.863 27.1762 73.3973 27.3453C72.3154 27.4807 71.5825 27.5652 71.1986 27.5991C71.0241 27.9712 70.8496 28.4788 70.6751 29.1216C70.3261 30.4073 70.1516 31.676 70.1516 32.9279C70.1516 34.8226 70.4483 36.2267 71.0415 37.1402C71.6348 38.0537 72.3852 38.5105 73.2926 38.5105Z" fill="white"/>
<path d="M92.1628 38.7642L95.3037 38.003V5.52252L92.1628 4.76126V4H98.9681C102.109 4 103.68 5.52252 103.68 8.56756V26.3303L113.364 16.4339L109.438 14.9114V14.1501H119.384V14.9114L115.196 16.4339L109.176 22.524L119.384 38.003L122.002 38.7642V39.5255H115.196C113.521 39.5255 112.16 39.1702 111.113 38.4597C110.066 37.7492 109.072 36.6665 108.129 35.2117L103.68 28.3603V38.003L106.821 38.7642V39.5255H92.1628V38.7642Z" fill="white"/>
<path d="M136.14 40.2867C131.673 40.2867 128.2 39.1026 125.723 36.7342C123.245 34.332 122.006 31.0332 122.006 26.8378C122.006 24.0973 122.547 21.712 123.629 19.682C124.711 17.6519 126.211 16.0956 128.131 15.0129C130.085 13.9302 132.319 13.3889 134.831 13.3889C137.344 13.3889 139.543 13.8456 141.427 14.7591C143.347 15.6727 144.813 16.9076 145.825 18.4639C146.872 19.9865 147.395 21.6782 147.395 23.539C147.395 24.3849 147.308 25.1123 147.133 25.7213L146.872 26.5841C145.371 26.8886 143.748 27.1423 142.003 27.3453C138.339 27.8528 134.639 28.1066 130.905 28.1066C130.905 32.0313 131.464 34.8395 132.58 36.5312C133.697 38.1891 135.233 39.018 137.187 39.018C138.548 39.018 139.805 38.7135 140.956 38.1045C142.143 37.4616 143.068 36.6327 143.731 35.6177C144.429 34.5688 144.778 33.5031 144.778 32.4204H146.086C146.086 33.7737 145.668 35.0594 144.83 36.2774C143.992 37.4955 142.823 38.4766 141.323 39.221C139.822 39.9315 138.094 40.2867 136.14 40.2867ZM130.905 26.8378C133.139 26.8378 134.953 26.7532 136.349 26.5841C136.943 26.5502 137.571 26.4656 138.234 26.3303C138.269 26.1611 138.356 25.789 138.496 25.2138C138.67 24.3679 138.758 23.4713 138.758 22.524C138.758 19.7158 138.374 17.6689 137.606 16.3832C136.838 15.0637 135.913 14.4039 134.831 14.4039C132.214 14.4039 130.905 18.5485 130.905 26.8378Z" fill="white"/>
<path d="M25.7101 99.6016C24.1396 99.6016 22.9182 99.1956 22.0457 98.3836C21.1732 97.5716 20.7369 96.4551 20.7369 95.0341C20.7369 93.7484 21.0859 92.7503 21.7839 92.0398C22.5168 91.3293 23.4765 90.974 24.6631 90.974C24.9423 90.974 25.2215 90.9909 25.5007 91.0247C25.7799 91.0924 25.9718 91.1263 26.0765 91.1263L26.7571 91.2277V98.0791C27.7692 97.9099 28.6591 97.3686 29.4269 96.4551C30.1947 95.5416 31.0497 93.9683 31.992 91.7353L33.039 89.1977L19.4282 64.8374L16.8108 64.0761V63.3149H23.3544C25.1692 63.3149 26.6 63.687 27.647 64.4314C28.7289 65.1419 29.6537 66.2077 30.4215 67.6287L36.9652 79.3521L42.4618 65.5987L38.5356 64.0761V63.3149H48.2202V64.0761L44.0323 65.5987L33.5625 91.7353C32.4457 94.5096 31.2591 96.5058 30.0027 97.7238C28.7464 98.9757 27.3155 99.6016 25.7101 99.6016Z" fill="white"/>
<path d="M61.5713 89.4515C57.2437 89.4515 53.841 88.2673 51.3632 85.8989C48.9202 83.4967 47.6988 80.1979 47.6988 76.0025C47.6988 71.8072 48.9202 68.5253 51.3632 66.1569C53.841 63.7547 57.2437 62.5536 61.5713 62.5536C65.8988 62.5536 69.284 63.7547 71.727 66.1569C74.2049 68.5253 75.4438 71.8072 75.4438 76.0025C75.4438 80.1979 74.2049 83.4967 71.727 85.8989C69.284 88.2673 65.8988 89.4515 61.5713 89.4515ZM61.5713 88.4365C62.9672 88.4365 64.1364 87.4891 65.0787 85.5944C66.0558 83.6997 66.5444 80.5024 66.5444 76.0025C66.5444 71.5026 66.0558 68.3054 65.0787 66.4107C64.1364 64.516 62.9672 63.5686 61.5713 63.5686C60.1753 63.5686 58.9887 64.516 58.0115 66.4107C57.0692 68.3054 56.5981 71.5026 56.5981 76.0025C56.5981 80.5024 57.0692 83.6997 58.0115 85.5944C58.9887 87.4891 60.1753 88.4365 61.5713 88.4365Z" fill="white"/>
<path d="M91.6904 89.4515C89.736 89.4515 87.9736 89.0624 86.4031 88.2842C84.8676 87.4722 83.6635 86.4234 82.7911 85.1377C81.9186 83.852 81.4823 82.4986 81.4823 81.0776V64.8374L78.3414 64.0761V63.3149H85.1468C88.2877 63.3149 89.8582 64.8374 89.8582 67.8824V81.0776C89.8582 83.2091 90.2421 84.8501 91.0099 86.0004C91.8125 87.1169 92.7374 87.6752 93.7844 87.6752C95.0756 87.6752 96.2448 86.9985 97.2917 85.6452C97.6756 85.1377 98.077 84.461 98.4958 83.6151V64.8374L95.3548 64.0761V63.3149H110.013V64.0761L106.872 64.8374V88.944H106.348C103.8 88.944 101.864 88.2673 100.537 86.9139C99.9441 86.3049 99.5253 85.6283 99.281 84.8839C98.7924 85.7298 98.2166 86.491 97.5535 87.1677C95.983 88.6902 94.0287 89.4515 91.6904 89.4515Z" fill="white"/>
<path d="M112.65 87.929L115.791 87.1677V64.8374L112.65 64.0761V63.3149H117.362C119.421 63.3149 121.044 63.9577 122.23 65.2434C122.684 65.7509 123.068 66.3768 123.382 67.1212C123.906 66.3768 124.551 65.7002 125.319 65.0911C127.064 63.7378 129.018 63.0611 131.182 63.0611C133.032 63.0611 134.41 63.484 135.318 64.3299C136.26 65.1419 136.731 66.3261 136.731 67.8824C136.731 69.0328 136.365 69.9632 135.632 70.6737C134.934 71.3504 133.991 71.6887 132.805 71.6887C132.316 71.6887 131.828 71.6549 131.339 71.5872L130.711 71.435V64.3299C128.931 64.3299 127.308 65.0066 125.842 66.3599C125.144 67.0366 124.586 67.7133 124.167 68.3899V87.1677L127.308 87.929V88.6902H112.65V87.929Z" fill="white"/>
<path d="M18.3222 142.391C15.9839 142.391 14.0296 141.63 12.4591 140.107C11.796 139.43 11.2202 138.669 10.7316 137.823C10.4873 138.568 10.0685 139.244 9.47518 139.853C8.14901 141.207 6.21209 141.883 3.66444 141.883H3.14095V107.627L0 106.865V106.104H6.80538C9.94632 106.104 11.5168 107.627 11.5168 110.672V117.523C12.0752 117.083 12.6161 116.745 13.1396 116.508C14.396 115.831 15.8618 115.493 17.5369 115.493C21.0618 115.493 23.8537 116.66 25.9128 118.995C28.0068 121.295 29.0537 124.611 29.0537 128.942C29.0537 131.818 28.5826 134.271 27.6403 136.301C26.698 138.297 25.4242 139.819 23.8188 140.868C22.2135 141.883 20.3812 142.391 18.3222 142.391ZM16.2282 140.615C17.345 140.615 18.2698 139.769 19.0027 138.077C19.7705 136.351 20.1544 133.306 20.1544 128.942C20.1544 124.374 19.7356 121.245 18.898 119.553C18.0953 117.861 16.9437 117.015 15.443 117.015C14.5356 117.015 13.6108 117.354 12.6685 118.03C12.3893 118.233 12.0054 118.572 11.5168 119.045V136.554C11.8309 137.333 12.2148 138.009 12.6685 138.584C13.7155 139.938 14.902 140.615 16.2282 140.615Z" fill="white"/>
<path d="M32.7304 140.868L35.8714 140.107V117.777L32.7304 117.015V116.254H37.4419C39.5009 116.254 41.1237 116.897 42.3103 118.183C42.764 118.69 43.1479 119.316 43.462 120.06C43.9855 119.316 44.6311 118.639 45.3989 118.03C47.1439 116.677 49.0983 116 51.262 116C53.1117 116 54.4902 116.423 55.3976 117.269C56.3399 118.081 56.811 119.265 56.811 120.822C56.811 121.972 56.4446 122.903 55.7117 123.613C55.0137 124.29 54.0714 124.628 52.8848 124.628C52.3962 124.628 51.9077 124.594 51.4191 124.527L50.7909 124.374V117.269C49.011 117.269 47.3882 117.946 45.9224 119.299C45.2244 119.976 44.666 120.653 44.2472 121.329V140.107L47.3882 140.868V141.63H32.7304V140.868Z" fill="white"/>
<path d="M72.7714 142.391C68.3042 142.391 64.8317 141.207 62.3539 138.838C59.876 136.436 58.6371 133.137 58.6371 128.942C58.6371 126.201 59.178 123.816 60.2599 121.786C61.3418 119.756 62.8425 118.2 64.762 117.117C66.7163 116.034 68.9499 115.493 71.4626 115.493C73.9754 115.493 76.174 115.95 78.0586 116.863C79.9781 117.777 81.4439 119.012 82.4559 120.568C83.5029 122.091 84.0264 123.782 84.0264 125.643C84.0264 126.489 83.9392 127.216 83.7647 127.825L83.5029 128.688C82.0022 128.993 80.3794 129.246 78.6345 129.449C74.97 129.957 71.2707 130.211 67.5365 130.211C67.5365 134.135 68.0948 136.944 69.2116 138.635C70.3284 140.293 71.864 141.122 73.8183 141.122C75.1794 141.122 76.4358 140.818 77.5875 140.209C78.774 139.566 79.6989 138.737 80.362 137.722C81.06 136.673 81.409 135.607 81.409 134.524H82.7177C82.7177 135.878 82.2989 137.163 81.4613 138.381C80.6237 139.6 79.4546 140.581 77.9539 141.325C76.4532 142.036 74.7257 142.391 72.7714 142.391ZM67.5365 128.942C69.77 128.942 71.5848 128.857 72.9808 128.688C73.574 128.654 74.2022 128.57 74.8653 128.434C74.9002 128.265 74.9875 127.893 75.1271 127.318C75.3016 126.472 75.3888 125.575 75.3888 124.628C75.3888 121.82 75.0049 119.773 74.2371 118.487C73.4693 117.168 72.5445 116.508 71.4626 116.508C68.8452 116.508 67.5365 120.653 67.5365 128.942Z" fill="white"/>
<path d="M97.1035 142.391C93.9974 142.391 91.6068 141.748 89.9316 140.462C88.2565 139.177 87.4189 137.536 87.4189 135.539C87.4189 134.22 87.7155 132.917 88.3088 131.632C88.5531 131.023 88.8672 130.464 89.2511 129.957C90.682 129.619 92.235 129.314 93.9102 129.043C97.6793 128.434 101.012 128.062 103.909 127.927V126.404C103.909 122.649 103.438 120.06 102.495 118.639C101.553 117.218 100.105 116.508 98.1504 116.508C97.4175 116.508 96.7894 116.593 96.2659 116.762L95.533 117.015V124.628L94.8524 124.78C94.2941 124.848 93.8229 124.882 93.439 124.882C92.2524 124.882 91.2927 124.543 90.5598 123.867C89.8618 123.156 89.5128 122.226 89.5128 121.075C89.5128 119.519 90.3155 118.2 91.9209 117.117C93.5612 116.034 95.9867 115.493 99.1974 115.493C101.92 115.493 104.258 115.967 106.212 116.914C108.201 117.827 109.702 119.113 110.714 120.771C111.761 122.395 112.285 124.273 112.285 126.404V140.107L115.426 140.868V141.63H110.714C108.62 141.63 106.997 141.004 105.846 139.752C105.357 139.244 104.973 138.601 104.694 137.823C104.205 138.669 103.63 139.43 102.967 140.107C101.396 141.63 99.4417 142.391 97.1035 142.391ZM99.1974 140.615C100.489 140.615 101.658 139.938 102.705 138.584C103.089 138.077 103.49 137.4 103.909 136.554V129.196C102.303 129.196 100.768 129.28 99.3021 129.449C98.2202 129.585 97.4873 129.669 97.1035 129.703C96.929 130.075 96.7545 130.583 96.58 131.226C96.231 132.511 96.0565 133.78 96.0565 135.032C96.0565 136.927 96.3531 138.331 96.9464 139.244C97.5397 140.158 98.29 140.615 99.1974 140.615Z" fill="white"/>
<path d="M128.799 142.391C126.74 142.391 124.908 141.883 123.303 140.868C121.697 139.819 120.423 138.297 119.481 136.301C118.539 134.271 118.068 131.818 118.068 128.942C118.068 124.611 119.097 121.295 121.156 118.995C123.25 116.66 126.06 115.493 129.584 115.493C131.26 115.493 132.725 115.831 133.982 116.508C134.505 116.745 135.046 117.083 135.605 117.523V107.627L132.464 106.865V106.104H139.269C142.41 106.104 143.98 107.627 143.98 110.672V140.107L147.121 140.868V141.63H142.41C140.316 141.63 138.693 141.004 137.541 139.752C137.053 139.244 136.669 138.601 136.39 137.823C135.936 138.669 135.36 139.43 134.662 140.107C133.092 141.63 131.137 142.391 128.799 142.391ZM130.893 140.615C132.184 140.615 133.354 139.938 134.401 138.584C134.784 138.077 135.186 137.4 135.605 136.554V119.045C135.221 118.673 134.819 118.335 134.401 118.03C133.458 117.354 132.551 117.015 131.678 117.015C130.178 117.015 129.009 117.861 128.171 119.553C127.368 121.245 126.967 124.374 126.967 128.942C126.967 133.306 127.333 136.351 128.066 138.077C128.834 139.769 129.776 140.615 130.893 140.615Z" fill="white"/>
<path d="M151.054 111.179C151.054 109.42 151.525 108.016 152.467 106.967C153.444 105.884 154.631 105.343 156.027 105.343C157.423 105.343 158.592 105.884 159.534 106.967C160.511 108.016 161 109.42 161 111.179L156.812 130.718H155.242L151.054 111.179ZM156.027 142.137C154.98 142.137 154.055 141.748 153.252 140.97C152.485 140.158 152.101 139.193 152.101 138.077C152.101 136.96 152.485 136.013 153.252 135.235C154.055 134.423 154.98 134.017 156.027 134.017C157.074 134.017 157.981 134.423 158.749 135.235C159.552 136.013 159.953 136.96 159.953 138.077C159.953 139.193 159.552 140.158 158.749 140.97C157.981 141.748 157.074 142.137 156.027 142.137Z" fill="white"/>
</svg>
