<svg width="29" height="29" viewBox="0 0 29 29" fill="none" xmlns="http://www.w3.org/2000/svg">
<path d="M26.6464 24.2078L21.5831 18.756C21.3546 18.5099 21.0448 18.3732 20.7198 18.3732H19.892C21.2937 16.4429 22.1265 14.015 22.1265 11.3739C22.1265 5.09091 17.3985 0 11.5633 0C5.72808 0 1 5.09091 1 11.3739C1 17.6569 5.72808 22.7478 11.5633 22.7478C14.0162 22.7478 16.271 21.851 18.0637 20.3418V21.2331C18.0637 21.583 18.1907 21.9166 18.4192 22.1627L23.4825 27.6145C23.9599 28.1285 24.7318 28.1285 25.2041 27.6145L26.6413 26.067C27.1187 25.553 27.1187 24.7218 26.6464 24.2078ZM11.5633 18.3732C7.97278 18.3732 5.0628 15.2454 5.0628 11.3739C5.0628 7.50786 7.9677 4.37457 11.5633 4.37457C15.1538 4.37457 18.0637 7.50239 18.0637 11.3739C18.0637 15.2399 15.1588 18.3732 11.5633 18.3732Z" fill="#343434"/>
</svg>
